<mxfile host="app.diagrams.net" agent="Mozilla/5.0 (Windows NT 10.0; Win64; x64) AppleWebKit/537.36 (KHTML, like Gecko) Chrome/140.0.0.0 Safari/537.36" version="28.2.7">
  <diagram name="第 1 页" id="YAQNEGETPx-_NRH9pccv">
    <mxGraphModel dx="1426" dy="743" grid="0" gridSize="10" guides="1" tooltips="1" connect="1" arrows="1" fold="1" page="1" pageScale="1" pageWidth="827" pageHeight="1169" math="0" shadow="0">
      <root>
        <mxCell id="0" />
        <mxCell id="1" parent="0" />
        <mxCell id="2udR-gno2O2sT4WjCnw5-18" style="edgeStyle=orthogonalEdgeStyle;rounded=0;orthogonalLoop=1;jettySize=auto;html=1;exitX=1;exitY=0.5;exitDx=0;exitDy=0;entryX=0;entryY=0.5;entryDx=0;entryDy=0;" edge="1" parent="1" source="2udR-gno2O2sT4WjCnw5-1" target="2udR-gno2O2sT4WjCnw5-5">
          <mxGeometry relative="1" as="geometry" />
        </mxCell>
        <mxCell id="2udR-gno2O2sT4WjCnw5-1" value="皮肤电传感单元" style="rounded=1;whiteSpace=wrap;html=1;" vertex="1" parent="1">
          <mxGeometry x="111" y="227" width="120" height="60" as="geometry" />
        </mxCell>
        <mxCell id="2udR-gno2O2sT4WjCnw5-15" style="edgeStyle=orthogonalEdgeStyle;rounded=0;orthogonalLoop=1;jettySize=auto;html=1;exitX=1;exitY=0.5;exitDx=0;exitDy=0;" edge="1" parent="1" source="2udR-gno2O2sT4WjCnw5-2" target="2udR-gno2O2sT4WjCnw5-5">
          <mxGeometry relative="1" as="geometry" />
        </mxCell>
        <mxCell id="2udR-gno2O2sT4WjCnw5-2" value="温度传感单元" style="rounded=1;whiteSpace=wrap;html=1;" vertex="1" parent="1">
          <mxGeometry x="111" y="324" width="120" height="60" as="geometry" />
        </mxCell>
        <mxCell id="2udR-gno2O2sT4WjCnw5-16" style="edgeStyle=orthogonalEdgeStyle;rounded=0;orthogonalLoop=1;jettySize=auto;html=1;exitX=1;exitY=0.5;exitDx=0;exitDy=0;" edge="1" parent="1" source="2udR-gno2O2sT4WjCnw5-3" target="2udR-gno2O2sT4WjCnw5-5">
          <mxGeometry relative="1" as="geometry" />
        </mxCell>
        <mxCell id="2udR-gno2O2sT4WjCnw5-3" value="压力阵列单元" style="rounded=1;whiteSpace=wrap;html=1;" vertex="1" parent="1">
          <mxGeometry x="111" y="421" width="120" height="60" as="geometry" />
        </mxCell>
        <mxCell id="2udR-gno2O2sT4WjCnw5-19" style="edgeStyle=orthogonalEdgeStyle;rounded=0;orthogonalLoop=1;jettySize=auto;html=1;exitX=1;exitY=0.5;exitDx=0;exitDy=0;entryX=0;entryY=0.5;entryDx=0;entryDy=0;" edge="1" parent="1" source="2udR-gno2O2sT4WjCnw5-4" target="2udR-gno2O2sT4WjCnw5-5">
          <mxGeometry relative="1" as="geometry" />
        </mxCell>
        <mxCell id="2udR-gno2O2sT4WjCnw5-4" value="生物阻抗检测单元" style="rounded=1;whiteSpace=wrap;html=1;" vertex="1" parent="1">
          <mxGeometry x="111" y="518" width="120" height="60" as="geometry" />
        </mxCell>
        <mxCell id="2udR-gno2O2sT4WjCnw5-13" style="edgeStyle=orthogonalEdgeStyle;rounded=0;orthogonalLoop=1;jettySize=auto;html=1;exitX=1;exitY=0.5;exitDx=0;exitDy=0;" edge="1" parent="1" source="2udR-gno2O2sT4WjCnw5-5" target="2udR-gno2O2sT4WjCnw5-6">
          <mxGeometry relative="1" as="geometry" />
        </mxCell>
        <mxCell id="2udR-gno2O2sT4WjCnw5-5" value="信号处理单元" style="rounded=1;whiteSpace=wrap;html=1;" vertex="1" parent="1">
          <mxGeometry x="331" y="373" width="120" height="60" as="geometry" />
        </mxCell>
        <mxCell id="2udR-gno2O2sT4WjCnw5-14" style="edgeStyle=orthogonalEdgeStyle;rounded=0;orthogonalLoop=1;jettySize=auto;html=1;exitX=1;exitY=0.5;exitDx=0;exitDy=0;" edge="1" parent="1" source="2udR-gno2O2sT4WjCnw5-6" target="2udR-gno2O2sT4WjCnw5-7">
          <mxGeometry relative="1" as="geometry" />
        </mxCell>
        <mxCell id="2udR-gno2O2sT4WjCnw5-20" value="发送至电视识别模块" style="edgeLabel;html=1;align=center;verticalAlign=middle;resizable=0;points=[];" vertex="1" connectable="0" parent="2udR-gno2O2sT4WjCnw5-14">
          <mxGeometry x="-0.1134" y="2" relative="1" as="geometry">
            <mxPoint as="offset" />
          </mxGeometry>
        </mxCell>
        <mxCell id="2udR-gno2O2sT4WjCnw5-6" value="无线通信单元" style="rounded=1;whiteSpace=wrap;html=1;" vertex="1" parent="1">
          <mxGeometry x="488" y="373" width="120" height="60" as="geometry" />
        </mxCell>
        <mxCell id="2udR-gno2O2sT4WjCnw5-7" value="电视端" style="rounded=1;whiteSpace=wrap;html=1;" vertex="1" parent="1">
          <mxGeometry x="764" y="373" width="120" height="60" as="geometry" />
        </mxCell>
      </root>
    </mxGraphModel>
  </diagram>
</mxfile>
